<svg version="1.2" xmlns="http://www.w3.org/2000/svg" viewBox="0 0 783 783" width="783" height="783">
	<title>gitsync</title>
	<defs>
		<linearGradient id="g1" x2="1" gradientUnits="userSpaceOnUse" gradientTransform="matrix(26.801,-69.818,43.332,16.634,365.199,594.872)">
			<stop offset="0" stop-color="#ffffff" stop-opacity="0"/>
			<stop offset=".85" stop-color="#ffffff" stop-opacity="1"/>
			<stop offset="1" stop-color="#ffffff" stop-opacity="1"/>
		</linearGradient>
		<linearGradient id="g2" x2="1" gradientUnits="userSpaceOnUse" gradientTransform="matrix(-26.8,-69.818,43.331,-16.633,418.588,594.872)">
			<stop offset="0" stop-color="#ffffff" stop-opacity="0"/>
			<stop offset=".85" stop-color="#ffffff" stop-opacity="1"/>
			<stop offset="1" stop-color="#ffffff" stop-opacity="1"/>
		</linearGradient>
	</defs>
	<style>
		.s0 { fill: #ffffff } 
		.s1 { fill: url(#g1) } 
		.s2 { fill: url(#g2) } 
	</style>
	<path id="Shape 1" fill-rule="evenodd" class="s0" d="m392 515.8l-27.2 2.9c-2.4 9.6-17.5 30.7-21.6 38.9-4.5 9-26.9 35.8-2.5 70 24.5 34.2 29.4 55.8 14.4 93.2-20.4 51.1-113.9 48.9-120.7-11.5-6.9-60.5 43.4-56.5 43.4-56.5 0 0-21.3 20.9-9.2 48.9 12 27.9 81.1 4.7 35.4-46.6-51.6-57.9-11.2-111.7-3.2-124.4 8.1-12.6 17.7-42.2 17.7-42.2-4.1 8.6-52.6 61.6-110.7 61.2-58.1-0.3-73.8-2.2-85.4 14.6-19.8 28.9-2.2 47.8 9.4 50 11.6 2.2 30.2-1.8 30.2-1.8 0 28.7-43.7 36.2-66.8 20.2-25.8-18-28.6-54.6-13.1-85.9 15.7-31.8 53.8-46.7 100.9-44.9 63.8 2.6 98.5-49.3 98.5-49.3-67.3 1-60.8-17.9-97.4-19-31.8-1-33.5 21-80 20.5-35.8-0.3-64.6-23.1-72.8-48.1-8.5-25.9-0.6-65 26.5-79.2 22.1-11.6 57.9-8.3 67.6 15.7 11 27-12.7 37.3-12.7 37.3 2-28.3-7.9-29.1-20.9-28-12.9 1.1-21.4 11.7-20.1 29.5 2.6 38.5 48.5 27.6 60.1 18.4 11.6-9.2 45.2-26.2 85.5-9.5 40.3 16.8 68.4 4.9 68.4 4.9-18.3-34-45.6-35.5-77-51.1-30.6-15.3-52.3-45.6-53-80.3-0.5-21.7 15.3-62 4.1-79.2-11.2-17.2-31.7-18.3-41.1-13.1-18.3 10.3-10.4 43.3-10.4 43.3-35.2-8.9-29.1-44.2-24.7-57.1 4.5-13.1 22-30.6 53.4-29.9 37.8 0.9 82.7 36.2 73.2 97.1-4.1 26.5-10.8 50.4 18.7 72.8 17.5 13.4 50.8 16.5 50.8 16.5-16.8-19.4-21.6-40.9-15.7-69.9 5.1-24.6 11-55-7.8-77.6-31.3-37.6-35.5-81.2-10.5-113.2 25.2-32.3 78.1-37.8 96.7-2.2 16.1 30.6-18.1 43.5-18.1 43.5 1.7-8.3 3.7-18.7-2.8-27.1-7-9.2-30.9-8.1-41.4 13.4-15.6 31.8 7.2 46.2 17.9 64.5 10.7 18.2 30.4 45.5 23.5 74.5-10.2 42.9-3.6 50.6-3.6 50.6 25.3-29 51.9-30.3 74.1-30.3zm-9.9-176.4c0-15.2-12.3-27.5-27.5-27.5-15.3 0-27.6 12.3-27.6 27.5 0 15.3 12.3 27.6 27.6 27.6 15.2 0 27.5-12.3 27.5-27.6z"/>
	<path id="Shape 2" class="s1" d="m365.2 503.9l26.8-0.3v112.7l-26.4-11.2z"/>
	<path id="Shape 1 copy" fill-rule="evenodd" class="s0" d="m392 240.3c22.2 0 48.8 1.3 74.1 30.2 0 0 6.6-7.7-3.6-50.6-6.9-28.9 12.8-56.2 23.5-74.5 10.7-18.2 33.5-32.6 17.9-64.4-10.5-21.5-34.4-22.6-41.4-13.4-6.5 8.4-4.5 18.7-2.8 27 0 0-34.2-12.8-18.1-43.5 18.6-35.5 71.5-30 96.7 2.3 25 32 20.8 75.6-10.5 113.1-18.8 22.7-12.9 53.1-7.8 77.7 5.9 29 1.1 50.4-15.7 69.9 0 0 33.3-3.2 50.8-16.5 29.5-22.4 22.8-46.3 18.7-72.8-9.5-61 35.4-96.2 73.2-97.1 31.4-0.7 48.9 16.8 53.4 29.9 4.4 12.8 10.5 48.2-24.7 57.1 0 0 7.9-33-10.4-43.3-9.4-5.2-29.9-4.1-41.1 13.1-11.2 17.1 4.6 57.4 4.1 79.1-0.7 34.8-22.4 65.1-53 80.3-31.4 15.7-58.7 17.2-77 51.2 0 0 28.1 11.8 68.4-4.9 40.3-16.8 73.9 0.2 85.5 9.5 11.6 9.2 57.5 20.1 60.1-18.4 1.3-17.8-7.2-28.4-20.1-29.5-13-1.2-22.9-0.3-20.9 28 0 0-23.7-10.3-12.7-37.4 9.7-24 45.5-27.2 67.6-15.6 27.1 14.2 35 53.2 26.5 79.1-8.2 25.1-37 47.8-72.8 48.2-46.5 0.5-48.2-21.5-80-20.5-36.6 1.1-30.1 20-97.4 19 0 0 34.7 51.9 98.5 49.3 47.1-1.8 85.2 13.1 100.9 44.8 15.5 31.4 12.7 68-13.1 85.9-23.1 16.1-66.8 8.6-66.8-20.1 0 0 18.6 4 30.2 1.8 11.6-2.2 29.2-21.2 9.4-50-11.6-16.8-27.3-15-85.4-14.6-58.1 0.4-106.6-52.6-110.7-61.2 0 0 9.6 29.6 17.7 42.2 8 12.7 48.4 66.5-3.2 124.3-45.7 51.4 23.4 74.6 35.4 46.7 12.1-28-9.2-48.9-9.2-48.9 0 0 50.3-4 43.4 56.4-6.8 60.5-100.3 62.7-120.7 11.6-15-37.4-10.1-59.1 14.4-93.2 24.4-34.2 2-61-2.5-70-4.1-8.2-19.2-29.3-21.6-38.9l-27.2-3zm9.9 99.1c0 15.2 12.3 27.5 27.5 27.5 15.3 0 27.6-12.3 27.6-27.5 0-15.2-12.3-27.5-27.6-27.5-15.2 0-27.5 12.3-27.5 27.5z"/>
	<path id="Shape 2 copy" class="s2" d="m418.6 503.9l-26.8-0.3v112.7l26.3-11.2z"/>
</svg>