<svg version="1.2" xmlns="http://www.w3.org/2000/svg" viewBox="0 0 1026 1026" width="1026" height="1026">
	<title>vocode</title>
	<defs>
		<clipPath clipPathUnits="userSpaceOnUse" id="cp1">
			<path d="m-654.57-654.57h2335.14v2335.14h-2335.14z"/>
		</clipPath>
	</defs>\
	<style>
  		.s0 { fill: currentColor }
	</style>
	<g id="g8">
		<g id="g10">
			<g id="Clip-Path: Clip-Path: g12" clip-path="url(#cp1)">
				<g id="Clip-Path: g12">
					<g id="g12">
						<g id="g64">
							<path id="path66" class="s0" d="m527.2 592.8c69.8 0 126.4-56.6 126.4-126.4v-198.9h-46.9c-11.2 0-20.3-9.1-20.3-20.3 0-11.3 9.1-20.4 20.3-20.4h46.9v-33.4h-46.9c-11.2 0-20.3-9.1-20.3-20.4 0-11.2 9.1-20.4 20.3-20.4h46.9c-2.3-67.8-58-122-126.4-122-68.3 0-124 54.2-126.3 122h46.8c11.3 0 20.4 9.2 20.4 20.4 0 11.3-9.1 20.4-20.4 20.4h-46.9v33.4h46.9c11.3 0 20.4 9.1 20.4 20.4 0 11.2-9.1 20.3-20.4 20.3h-46.9v198.9c0 69.8 56.6 126.4 126.4 126.4z"/>
						</g>
						<g id="g68">
							<path id="path70" class="s0" d="m830.5 417.5v-97.3c0-27-22-49-48.9-49-6.8 0-13.3 1.4-19.2 4-17.4 7.4-29.7 24.8-29.7 45v146.2c0 113.3-92.1 205.5-205.4 205.5-113.3 0-205.4-92.2-205.4-205.5v-146.2c0-20.2-12.3-37.6-29.8-45-5.8-2.6-12.4-4-19.1-4-27 0-49 22-49 49v97.3c0 4.9 0.8 9.5 2.1 14-1.4 11.4-2.1 23.1-2.1 34.9 0 67.6 22.2 130 59.6 180.5 3.5 4.7 7.1 9.3 10.9 13.8 38.7 49.6 170.3 224 216.5 357.2v-205.3c-19.1-6.7-32.7-24.8-32.7-46.2 0-27 21.9-48.9 49-48.9 27 0 48.9 21.9 48.9 48.9 0 21.4-13.6 39.5-32.6 46.2v205.1c46.2-133.1 177.7-307.3 216.4-357 43.9-52.7 70.5-120.4 70.5-194.3 0-11.8-0.6-23.5-2-34.9v-0.1c1.3-4.4 2-9.1 2-13.9z"/>
						</g>
					</g>
				</g>
			</g>
		</g>
	</g>
</svg>